<?xml version="1.0" encoding="utf-8"?>
<!-- Generator: Adobe Illustrator 15.1.0, SVG Export Plug-In . SVG Version: 6.00 Build 0)  -->
<!DOCTYPE svg PUBLIC "-//W3C//DTD SVG 1.1//EN" "http://www.w3.org/Graphics/SVG/1.1/DTD/svg11.dtd">
<svg version="1.1" id="Layer_1" xmlns="http://www.w3.org/2000/svg" xmlns:xlink="http://www.w3.org/1999/xlink" x="0px" y="0px"
	 width="128px" height="128px" viewBox="0 0 128 128" enable-background="new 0 0 128 128" xml:space="preserve">
<g>
	<circle fill="#88C5CC" cx="64" cy="64" r="64"/>
	<path fill="#81BEC1" d="M118.145,98.105c-0.063-0.154-0.121-0.311-0.188-0.465c-0.081-0.201-0.161-0.402-0.245-0.604
		c-0.081-0.205-0.163-0.41-0.248-0.614c-0.081-0.205-0.163-0.409-0.248-0.614c-0.082-0.207-0.165-0.414-0.251-0.621
		c-0.081-0.201-0.16-0.403-0.244-0.604c-0.085-0.212-0.17-0.423-0.258-0.635c-0.079-0.198-0.156-0.396-0.24-0.595
		c-0.08-0.205-0.162-0.41-0.248-0.613c-0.08-0.207-0.164-0.415-0.25-0.622c-0.08-0.202-0.16-0.404-0.244-0.604
		c-0.082-0.205-0.164-0.41-0.248-0.613c-0.082-0.205-0.164-0.41-0.248-0.614c-0.082-0.208-0.166-0.415-0.252-0.622
		c-0.08-0.202-0.16-0.404-0.244-0.605c-0.082-0.203-0.163-0.408-0.248-0.613c-0.081-0.204-0.163-0.409-0.248-0.613
		c-0.082-0.207-0.165-0.415-0.251-0.622c-0.081-0.202-0.161-0.403-0.245-0.604c-0.081-0.205-0.163-0.41-0.248-0.613
		c-0.081-0.205-0.163-0.41-0.248-0.614c-0.081-0.205-0.163-0.41-0.248-0.614c-0.082-0.207-0.165-0.414-0.251-0.621
		c-0.081-0.201-0.161-0.403-0.245-0.604c-0.081-0.205-0.163-0.41-0.247-0.614c-0.081-0.205-0.163-0.41-0.248-0.613
		c-0.081-0.207-0.165-0.414-0.251-0.621c-0.08-0.203-0.16-0.404-0.244-0.605c-0.082-0.205-0.164-0.41-0.248-0.614
		c-0.082-0.204-0.164-0.409-0.248-0.612c-0.082-0.207-0.166-0.416-0.252-0.623c-0.082-0.209-0.166-0.418-0.254-0.625
		c-0.078-0.198-0.156-0.396-0.24-0.596c-0.08-0.203-0.162-0.408-0.248-0.613c-0.08-0.205-0.162-0.409-0.248-0.613
		c-0.082-0.207-0.164-0.415-0.25-0.622c-0.082-0.202-0.162-0.404-0.246-0.604c-0.08-0.205-0.162-0.41-0.247-0.613
		c-0.081-0.205-0.163-0.41-0.248-0.614c-0.082-0.208-0.165-0.415-0.251-0.622c-0.081-0.202-0.161-0.404-0.245-0.604
		c-0.081-0.205-0.163-0.41-0.247-0.614c-0.081-0.205-0.163-0.41-0.248-0.614c-0.082-0.207-0.165-0.415-0.251-0.622
		c-0.081-0.2-0.161-0.403-0.245-0.604c-0.081-0.204-0.163-0.409-0.248-0.613c-0.081-0.205-0.162-0.41-0.248-0.614
		c-0.08-0.204-0.162-0.409-0.248-0.612c-0.082-0.207-0.164-0.416-0.251-0.623c-0.081-0.201-0.161-0.403-0.245-0.604
		c-0.08-0.205-0.162-0.41-0.248-0.612c-0.08-0.205-0.162-0.41-0.248-0.615c-0.082-0.207-0.164-0.414-0.25-0.621
		c-0.082-0.202-0.162-0.404-0.246-0.605c-0.08-0.205-0.162-0.41-0.248-0.613c-0.08-0.205-0.162-0.41-0.248-0.614
		c-0.084-0.214-0.17-0.429-0.26-0.644c-0.078-0.194-0.156-0.391-0.236-0.584c-0.081-0.205-0.163-0.41-0.247-0.614
		c-0.081-0.205-0.163-0.41-0.248-0.614c-0.082-0.208-0.165-0.415-0.251-0.622c-0.081-0.202-0.161-0.404-0.245-0.604
		c-0.081-0.205-0.163-0.41-0.248-0.614c-0.081-0.205-0.163-0.41-0.248-0.614c-0.081-0.205-0.163-0.41-0.248-0.614
		c-0.082-0.208-0.165-0.415-0.251-0.622c-0.081-0.201-0.161-0.403-0.245-0.604c-0.081-0.205-0.163-0.41-0.248-0.614
		c-1.832-4.595-4.562-9.13-8.067-14.257c-0.229-0.306-0.92-1.203-1.938-2.373c-0.069-0.188-0.146-0.373-0.229-0.555
		c-0.073-0.21-0.156-0.416-0.25-0.617c-0.071-0.208-0.154-0.411-0.244-0.61c-0.074-0.209-0.157-0.412-0.248-0.613
		c-0.938-2.637-3.215-4.638-6.016-5.174c-0.053-0.132-0.105-0.261-0.166-0.389c-0.074-0.209-0.154-0.414-0.248-0.613
		c-0.074-0.211-0.156-0.416-0.248-0.617c-0.074-0.207-0.156-0.411-0.248-0.61c-0.073-0.209-0.154-0.414-0.248-0.614
		c-1.106-3.087-4.053-5.3-7.521-5.3c-0.256,0-0.509,0.015-0.759,0.038c-0.004,0-0.008,0.001-0.014,0.001
		c-1.602,0.154-3.063,0.779-4.248,1.736c-4.875-1.276-10.458-0.589-11.438-0.374c0.003,0,0.009,0,0.012,0
		c-0.605,0.095-1.231,0.215-1.867,0.374c-0.18-0.146-0.364-0.28-0.557-0.409c-0.136-0.094-0.273-0.174-0.412-0.257
		c-0.052-0.029-0.101-0.063-0.151-0.091c-0.173-0.099-0.346-0.186-0.521-0.267c-0.021-0.011-0.044-0.021-0.066-0.033
		c-0.188-0.086-0.378-0.163-0.566-0.231c-0.02-0.007-0.036-0.015-0.054-0.021c-0.19-0.066-0.38-0.127-0.57-0.179
		c-0.029-0.008-0.058-0.017-0.087-0.024c-0.182-0.048-0.361-0.087-0.541-0.119c-0.047-0.01-0.093-0.021-0.139-0.027
		c-0.174-0.029-0.346-0.05-0.517-0.067c-0.056-0.006-0.11-0.015-0.167-0.02c-0.227-0.02-0.451-0.029-0.673-0.029
		c-0.258,0-0.513,0.014-0.764,0.038c-4.061,0.385-7.236,3.802-7.236,7.962c0,0.015,0.002,0.028,0.002,0.043
		c-3.729,0.385-6.692,3.332-7.114,7.049c-0.308,0.344-0.591,0.67-0.853,0.976c-0.017,0.021-0.033,0.039-0.049,0.059
		c-0.259,0.304-0.488,0.581-0.694,0.834c-0.004,0.005-0.011,0.013-0.015,0.018c-0.468,0.574-0.795,1.002-0.947,1.204
		c-6.756,9.88-10.664,17.614-10.664,27.902c0,0.43,0.122,0.84,0.326,1.207c0.054,0.217,0.141,0.42,0.248,0.614
		c0.054,0.217,0.141,0.42,0.249,0.615c0.053,0.215,0.14,0.418,0.247,0.61c0.054,0.217,0.141,0.42,0.248,0.614
		c0.054,0.217,0.141,0.42,0.248,0.613c0.054,0.217,0.141,0.42,0.247,0.613c0.055,0.217,0.142,0.421,0.25,0.616
		c0.053,0.215,0.14,0.418,0.246,0.61c0.055,0.218,0.142,0.42,0.248,0.613c0.055,0.219,0.142,0.42,0.248,0.614
		c0.055,0.219,0.143,0.424,0.251,0.619c0.055,0.215,0.141,0.416,0.246,0.606c0.054,0.219,0.142,0.422,0.248,0.614
		c0.054,0.218,0.142,0.42,0.248,0.614c0.054,0.217,0.141,0.421,0.249,0.615c0.053,0.216,0.14,0.419,0.247,0.611
		c0.054,0.217,0.141,0.42,0.248,0.613c0.054,0.217,0.141,0.42,0.248,0.614c0.054,0.217,0.141,0.421,0.249,0.614
		c0.053,0.217,0.14,0.42,0.247,0.611c0.054,0.219,0.141,0.42,0.248,0.614c0.054,0.217,0.141,0.42,0.248,0.614
		c0.054,0.217,0.141,0.42,0.248,0.613c0.054,0.217,0.141,0.422,0.249,0.614c0.053,0.218,0.14,0.419,0.247,0.612
		c0.054,0.217,0.141,0.42,0.247,0.613c0.055,0.218,0.142,0.42,0.248,0.615c0.055,0.217,0.142,0.42,0.249,0.614
		c0.054,0.216,0.141,0.418,0.247,0.611c0.055,0.217,0.142,0.42,0.248,0.614c0.055,0.217,0.142,0.42,0.248,0.612
		c0.055,0.218,0.142,0.423,0.249,0.615c0.054,0.216,0.141,0.419,0.247,0.612c0.055,0.217,0.142,0.421,0.248,0.613
		c0.054,0.217,0.141,0.42,0.248,0.613c0.054,0.219,0.143,0.424,0.251,0.618c0.053,0.216,0.14,0.418,0.247,0.61
		c0.053,0.217,0.14,0.42,0.247,0.612c0.054,0.218,0.141,0.421,0.248,0.613c0.054,0.218,0.141,0.421,0.248,0.614
		c0.054,0.218,0.141,0.421,0.249,0.615c0.053,0.215,0.14,0.418,0.247,0.611c0.054,0.217,0.141,0.42,0.248,0.613
		c0.054,0.218,0.141,0.422,0.248,0.613c0.054,0.218,0.141,0.422,0.249,0.615c0.053,0.217,0.14,0.42,0.247,0.612
		c0.054,0.217,0.141,0.421,0.247,0.613c0.055,0.218,0.142,0.42,0.248,0.614c0.055,0.217,0.142,0.42,0.248,0.613
		c0.055,0.217,0.142,0.422,0.249,0.615c0.054,0.216,0.141,0.419,0.247,0.611c0.055,0.218,0.142,0.422,0.248,0.613
		c0.055,0.217,0.142,0.42,0.248,0.614c0.055,0.218,0.142,0.421,0.249,0.616c0.053,0.215,0.141,0.418,0.247,0.609
		c0.054,0.218,0.141,0.42,0.248,0.615c0.054,0.217,0.141,0.42,0.248,0.613c0.054,0.217,0.141,0.421,0.249,0.615
		c0.053,0.216,0.14,0.418,0.247,0.611c0.054,0.217,0.141,0.42,0.248,0.613c0.054,0.219,0.142,0.424,0.25,0.618
		c0.054,0.215,0.14,0.418,0.247,0.608c0.054,0.219,0.141,0.423,0.249,0.615c0.053,0.217,0.14,0.42,0.247,0.612
		c0.054,0.217,0.141,0.421,0.248,0.614c0.054,0.217,0.141,0.42,0.248,0.613c0.054,0.218,0.141,0.422,0.249,0.615
		c0.053,0.215,0.14,0.418,0.247,0.611c0.054,0.217,0.141,0.42,0.247,0.613c0.055,0.218,0.142,0.422,0.248,0.613
		c0.055,0.219,0.142,0.422,0.249,0.615c0.054,0.217,0.141,0.419,0.247,0.612c0.055,0.217,0.142,0.421,0.248,0.614
		c0.055,0.217,0.142,0.42,0.248,0.613c0.055,0.217,0.142,0.422,0.248,0.613c0.055,0.217,0.142,0.421,0.249,0.615
		c0.053,0.216,0.141,0.419,0.247,0.611c0.054,0.217,0.141,0.422,0.248,0.613c0.054,0.219,0.141,0.42,0.248,0.614
		c0.054,0.217,0.141,0.421,0.249,0.616c0.053,0.215,0.14,0.418,0.247,0.611c0.054,0.217,0.141,0.42,0.248,0.612
		c0.054,0.218,0.141,0.421,0.248,0.614c0.054,0.217,0.141,0.421,0.249,0.615c0.053,0.216,0.14,0.418,0.247,0.611
		c0.054,0.219,0.142,0.424,0.251,0.617c0.053,0.215,0.139,0.418,0.246,0.609c0.051,0.205,0.135,0.396,0.232,0.578
		c5.67,1.646,11.656,2.545,17.856,2.545C86.805,128,106.809,116.063,118.145,98.105z"/>
	<g>
		<path fill="#FDFCF6" d="M86.461,64.947c-2.953-11.471,1.203-22.446,4.314-25.688l0.013,0.005
			c-0.004-0.005-0.009-0.009-0.013-0.014c-0.426-3.714-3.389-6.655-7.111-7.04c0-0.015,0.002-0.028,0.002-0.043c0-4.418-3.582-8-8-8
			c-1.902,0-3.646,0.667-5.02,1.775C67.904,25.254,65.309,25.25,64,25.25c-1.309,0-3.904,0.005-6.646,0.692
			c-1.372-1.108-3.116-1.775-5.02-1.775c-4.418,0-8,3.582-8,8c0,0.015,0.002,0.028,0.002,0.043
			c-3.729,0.385-6.693,3.332-7.114,7.049c3.112,3.242,7.27,14.219,4.315,25.688C41.808,83.301,44.135,102.75,64,102.75
			c19.863,0,22.191-19.443,22.463-37.796C86.462,64.951,86.462,64.949,86.461,64.947z"/>
		<path fill="#EBE6C7" d="M69.834,26.896c0.104-0.271,0.602-0.813,0.813-0.953c-4.875-1.276-10.457-0.59-11.437-0.374
			C60.596,25.613,68.063,26.146,69.834,26.896z"/>
		<path fill="#EBE6C7" d="M90.788,39.264c-0.004-0.005-0.009-0.009-0.013-0.014c-0.426-3.714-3.389-6.655-7.111-7.04
			c0-0.015,0.002-0.028,0.002-0.043c0-4.418-3.582-8-8-8c-0.514,0-1.016,0.053-1.501,0.146c3.701,0.702,6.501,3.949,6.501,7.854
			c0,0.015-0.002,0.028-0.002,0.043c3.725,0.385,6.688,3.326,7.111,7.04c0.004,0.005,0.009,0.009,0.013,0.014l-0.013-0.005
			c-3.111,3.242-7.27,14.22-4.314,25.688c0.001,0.002,0.001,0.004,0.002,0.007c-0.264,17.878-2.486,36.782-20.963,37.749
			c0.491,0.025,0.986,0.047,1.5,0.047c19.863,0,22.191-19.443,22.463-37.796c-0.001-0.003-0.001-0.005-0.002-0.007
			c-2.953-11.471,1.203-22.446,4.314-25.688L90.788,39.264z"/>
		<path fill="#EBE6C7" d="M55.084,26.729c0.718-0.245,1.506-0.685,2.27-0.785c-1.603-1.297-3.391-1.775-5.02-1.775
			c-0.513,0-1.013,0.053-1.499,0.146C52.15,24.563,54.082,25.919,55.084,26.729z"/>
		<path fill="#FFE1D9" d="M103.175,72.105C103.699,71.63,104,70.958,104,70.25c0-10.288-3.908-18.021-10.73-27.996
			c-0.269-0.357-1.162-1.521-2.479-2.99l-0.013-0.005c-3.111,3.242-7.27,14.22-4.314,25.688c0.001,0.002,0.001,0.004,0.002,0.007
			c0-0.003,0-0.005,0-0.007c4.287,4.232,9.861,7.287,14.783,7.787C101.949,72.818,102.646,72.579,103.175,72.105z"/>
		<path fill="#F2D6CE" d="M93.27,42.254c-0.269-0.357-1.162-1.521-2.479-2.99l-0.013-0.005c-0.447,0.468-0.918,1.111-1.387,1.879
			c0.438,0.537,0.741,0.935,0.879,1.116C97.092,52.229,101,59.962,101,70.25c0,0.708-0.301,1.382-0.825,1.855
			c-0.17,0.15-0.36,0.271-0.562,0.369c0.551,0.113,1.096,0.205,1.633,0.26c0.703,0.084,1.4-0.155,1.929-0.629
			C103.699,71.63,104,70.958,104,70.25C104,59.962,100.092,52.229,93.27,42.254z"/>
		<path fill="#FFE1D9" d="M37.222,39.259c-1.346,1.503-2.267,2.702-2.558,3.089C27.908,52.229,24,59.962,24,70.25
			c0,0.708,0.301,1.382,0.825,1.855c0.523,0.473,1.229,0.713,1.929,0.629c4.922-0.5,10.496-3.555,14.783-7.787
			C44.49,53.479,40.334,42.501,37.222,39.259z"/>
		<path fill="#F2D6CE" d="M37.222,39.259c-0.643,0.718-1.184,1.361-1.609,1.886c2.774,4.557,5.452,13.99,2.926,23.804
			c-3.819,3.771-8.66,6.602-13.151,7.527c0.422,0.215,0.896,0.315,1.368,0.26c4.922-0.5,10.496-3.555,14.783-7.787
			C44.49,53.479,40.334,42.501,37.222,39.259z"/>
		<path fill="#FFE1D9" d="M64,68.668c-9.646,0-17.837,6.211-20.806,14.852C45.511,94.42,51,102.75,64,102.75
			s18.488-8.33,20.807-19.23C81.837,74.879,73.646,68.668,64,68.668z"/>
		<path fill="#F2D6CE" d="M66.738,102.604c0.488-0.049,0.968-0.108,1.433-0.186c0.2-0.033,0.401-0.064,0.599-0.102
			c0.537-0.104,1.06-0.223,1.563-0.357c0.085-0.023,0.176-0.04,0.26-0.064c0.584-0.166,1.145-0.357,1.686-0.569
			c0.146-0.06,0.285-0.122,0.429-0.183c0.397-0.168,0.787-0.348,1.163-0.539c0.152-0.08,0.308-0.16,0.459-0.242
			c0.393-0.217,0.771-0.445,1.139-0.688c0.094-0.061,0.19-0.117,0.281-0.18c0.453-0.313,0.887-0.645,1.302-0.994
			c0.087-0.073,0.167-0.152,0.252-0.229c0.327-0.287,0.644-0.584,0.946-0.896c0.111-0.112,0.22-0.229,0.328-0.345
			c0.287-0.313,0.564-0.635,0.835-0.967c0.077-0.097,0.157-0.188,0.231-0.285c0.342-0.438,0.666-0.891,0.974-1.36
			c0.028-0.047,0.059-0.099,0.089-0.146c0.271-0.424,0.527-0.859,0.773-1.309c0.071-0.13,0.143-0.262,0.211-0.395
			c0.211-0.397,0.41-0.807,0.604-1.221c0.056-0.121,0.113-0.238,0.167-0.359c0.479-1.077,0.9-2.206,1.273-3.381
			c0.041-0.131,0.078-0.264,0.119-0.395c0.146-0.479,0.283-0.961,0.412-1.451c0.037-0.135,0.072-0.27,0.107-0.404
			c0.154-0.605,0.3-1.221,0.434-1.844c-0.563-1.634-1.312-3.18-2.22-4.611c-1.676,12.578-6.438,23.02-19.972,23.785
			c0.459,0.022,0.906,0.059,1.385,0.059c0.734,0,1.438-0.035,2.127-0.087C66.334,102.646,66.535,102.624,66.738,102.604z"/>
		<path fill="#70CCBD" d="M56.5,62.75c-1.382,0-2.5-1.118-2.5-2.5v-7.5c0-1.382,1.118-2.5,2.5-2.5s2.5,1.118,2.5,2.5v7.5
			C59,61.632,57.882,62.75,56.5,62.75z"/>
		<path fill="#70CCBD" d="M71.5,62.75c-1.382,0-2.5-1.118-2.5-2.5v-7.5c0-1.382,1.118-2.5,2.5-2.5s2.5,1.118,2.5,2.5v7.5
			C74,61.632,72.882,62.75,71.5,62.75z"/>
		<path fill="#E6AFA0" d="M64,92.75c-0.64,0-1.279-0.244-1.768-0.732l-7.5-7.5c-0.978-0.977-0.978-2.559,0-3.535
			c0.977-0.976,2.559-0.977,3.534,0l5.732,5.732l5.73-5.732c0.979-0.977,2.561-0.977,3.535,0c0.978,0.979,0.979,2.561,0,3.535
			l-7.5,7.5C65.279,92.506,64.641,92.75,64,92.75z"/>
	</g>
</g>
</svg>
